<svg width="90" height="20" viewBox="0 0 90 20" fill="none" xmlns="http://www.w3.org/2000/svg">
<path fill-rule="evenodd" clip-rule="evenodd" d="M9.93391 1.20292C7.6348 1.20292 5.4295 2.09974 3.80325 3.69663C2.17695 5.29358 1.26299 7.45987 1.26299 9.71902V18.0814C1.26272 18.1019 1.26657 18.1222 1.2744 18.1411C1.28222 18.16 1.29377 18.1771 1.30829 18.1913C1.3228 18.2056 1.33997 18.2167 1.35875 18.2242C1.37753 18.2317 1.39758 18.2354 1.41774 18.2352L1.4259 18.2351L9.93391 18.2351C11.0724 18.2351 12.1997 18.0149 13.2516 17.5871C14.3035 17.1593 15.2593 16.5321 16.0646 15.7414C16.8698 14.9507 17.5087 14.0119 17.9446 12.9785C18.3805 11.9452 18.6048 10.8376 18.6048 9.71902C18.6048 8.60043 18.3805 7.49284 17.9446 6.4595C17.5087 5.42616 16.8698 4.48735 16.0646 3.69663C15.2593 2.90592 14.3035 2.27878 13.2516 1.85094C12.1997 1.4231 11.0724 1.20292 9.93391 1.20292ZM9.93391 19.438H1.4293C1.24621 19.4398 1.06462 19.4058 0.895066 19.3382C0.724048 19.2699 0.568801 19.1687 0.438441 19.0407C0.308086 18.9127 0.205255 18.7605 0.13593 18.593C0.0671891 18.427 0.0327494 18.2492 0.0345521 18.0701V9.71902C0.0345521 7.14191 1.0771 4.67002 2.9334 2.84723C4.78976 1.02437 7.30789 0 9.93391 0C11.2342 0 12.5216 0.251481 13.7228 0.740043C14.924 1.2286 16.0153 1.94465 16.9344 2.84723C17.8536 3.7498 18.5826 4.82121 19.08 6.00026C19.5773 7.1793 19.8333 8.44293 19.8333 9.71902C19.8333 10.9951 19.5773 12.2587 19.08 13.4378C18.5826 14.6168 17.8536 15.6882 16.9344 16.5908C16.0153 17.4934 14.924 18.2094 13.7228 18.698C12.5216 19.1866 11.2342 19.438 9.93391 19.438Z" fill="#00B37E"/>
<path fill-rule="evenodd" clip-rule="evenodd" d="M6.09015 8.52977C6.09015 8.1976 6.36515 7.92831 6.70437 7.92831H12.7599C13.0991 7.92831 13.3741 8.1976 13.3741 8.52977C13.3741 8.86195 13.0991 9.13123 12.7599 9.13123H6.70437C6.36515 9.13123 6.09015 8.86195 6.09015 8.52977Z" fill="white"/>
<path fill-rule="evenodd" clip-rule="evenodd" d="M6.09015 11.7011C6.09015 11.3689 6.36515 11.0996 6.70437 11.0996H12.7599C13.0991 11.0996 13.3741 11.3689 13.3741 11.7011C13.3741 12.0333 13.0991 12.3026 12.7599 12.3026H6.70437C6.36515 12.3026 6.09015 12.0333 6.09015 11.7011Z" fill="white"/>
<path d="M29.75 9.51562V10.7422H23.5938V9.51562H29.75ZM23.8281 4.625V16H22.3203V4.625H23.8281ZM31.0625 4.625V16H29.5625V4.625H31.0625ZM37.0312 16.1562C36.4427 16.1562 35.9089 16.0573 35.4297 15.8594C34.9557 15.6562 34.5469 15.3724 34.2031 15.0078C33.8646 14.6432 33.6042 14.2109 33.4219 13.7109C33.2396 13.2109 33.1484 12.6641 33.1484 12.0703V11.7422C33.1484 11.0547 33.25 10.4427 33.4531 9.90625C33.6562 9.36458 33.9323 8.90625 34.2812 8.53125C34.6302 8.15625 35.026 7.8724 35.4688 7.67969C35.9115 7.48698 36.3698 7.39062 36.8438 7.39062C37.4479 7.39062 37.9688 7.49479 38.4062 7.70312C38.849 7.91146 39.2109 8.20312 39.4922 8.57812C39.7734 8.94792 39.9818 9.38542 40.1172 9.89062C40.2526 10.3906 40.3203 10.9375 40.3203 11.5312V12.1797H34.0078V11H38.875V10.8906C38.8542 10.5156 38.776 10.151 38.6406 9.79688C38.5104 9.44271 38.3021 9.15104 38.0156 8.92188C37.7292 8.69271 37.3385 8.57812 36.8438 8.57812C36.5156 8.57812 36.2135 8.64844 35.9375 8.78906C35.6615 8.92448 35.4245 9.1276 35.2266 9.39844C35.0286 9.66927 34.875 10 34.7656 10.3906C34.6562 10.7812 34.6016 11.2318 34.6016 11.7422V12.0703C34.6016 12.4714 34.6562 12.849 34.7656 13.2031C34.8802 13.5521 35.0443 13.8594 35.2578 14.125C35.4766 14.3906 35.7396 14.599 36.0469 14.75C36.3594 14.901 36.7135 14.9766 37.1094 14.9766C37.6198 14.9766 38.0521 14.8724 38.4062 14.6641C38.7604 14.4557 39.0703 14.1771 39.3359 13.8281L40.2109 14.5234C40.0286 14.7995 39.7969 15.0625 39.5156 15.3125C39.2344 15.5625 38.888 15.7656 38.4766 15.9219C38.0703 16.0781 37.5885 16.1562 37.0312 16.1562ZM43.5781 4V16H42.125V4H43.5781ZM47.3438 9.17188V19.25H45.8906V7.54688H47.2188L47.3438 9.17188ZM53.0391 11.7031V11.8672C53.0391 12.4818 52.9661 13.0521 52.8203 13.5781C52.6745 14.099 52.4609 14.5521 52.1797 14.9375C51.9036 15.3229 51.5625 15.6224 51.1562 15.8359C50.75 16.0495 50.2839 16.1562 49.7578 16.1562C49.2214 16.1562 48.7474 16.0677 48.3359 15.8906C47.9245 15.7135 47.5755 15.4557 47.2891 15.1172C47.0026 14.7786 46.7734 14.3724 46.6016 13.8984C46.4349 13.4245 46.3203 12.8906 46.2578 12.2969V11.4219C46.3203 10.7969 46.4375 10.237 46.6094 9.74219C46.7812 9.2474 47.0078 8.82552 47.2891 8.47656C47.5755 8.1224 47.9219 7.85417 48.3281 7.67188C48.7344 7.48438 49.2031 7.39062 49.7344 7.39062C50.2656 7.39062 50.737 7.49479 51.1484 7.70312C51.5599 7.90625 51.9062 8.19792 52.1875 8.57812C52.4688 8.95833 52.6797 9.41406 52.8203 9.94531C52.9661 10.4714 53.0391 11.0573 53.0391 11.7031ZM51.5859 11.8672V11.7031C51.5859 11.2812 51.5417 10.8854 51.4531 10.5156C51.3646 10.1406 51.2266 9.8125 51.0391 9.53125C50.8568 9.24479 50.6224 9.02083 50.3359 8.85938C50.0495 8.69271 49.7083 8.60938 49.3125 8.60938C48.9479 8.60938 48.6302 8.67188 48.3594 8.79688C48.0938 8.92188 47.8672 9.09115 47.6797 9.30469C47.4922 9.51302 47.3385 9.7526 47.2188 10.0234C47.1042 10.2891 47.0182 10.5651 46.9609 10.8516V12.875C47.0651 13.2396 47.2109 13.5833 47.3984 13.9062C47.5859 14.224 47.8359 14.4818 48.1484 14.6797C48.4609 14.8724 48.8542 14.9688 49.3281 14.9688C49.7188 14.9688 50.0547 14.888 50.3359 14.7266C50.6224 14.5599 50.8568 14.3333 51.0391 14.0469C51.2266 13.7604 51.3646 13.4323 51.4531 13.0625C51.5417 12.6875 51.5859 12.2891 51.5859 11.8672Z" fill="#525252"/>
<path d="M58.1797 16H55.8047L55.8203 14.7734H58.1797C58.9922 14.7734 59.6693 14.6042 60.2109 14.2656C60.7526 13.9219 61.1589 13.4427 61.4297 12.8281C61.7057 12.2083 61.8438 11.4844 61.8438 10.6562V9.96094C61.8438 9.3099 61.7656 8.73177 61.6094 8.22656C61.4531 7.71615 61.224 7.28646 60.9219 6.9375C60.6198 6.58333 60.25 6.3151 59.8125 6.13281C59.3802 5.95052 58.8828 5.85938 58.3203 5.85938H55.7578V4.625H58.3203C59.0651 4.625 59.7448 4.75 60.3594 5C60.974 5.24479 61.5026 5.60156 61.9453 6.07031C62.3932 6.53385 62.737 7.09635 62.9766 7.75781C63.2161 8.41406 63.3359 9.15365 63.3359 9.97656V10.6562C63.3359 11.4792 63.2161 12.2214 62.9766 12.8828C62.737 13.5391 62.3906 14.099 61.9375 14.5625C61.4896 15.026 60.9479 15.3828 60.3125 15.6328C59.6823 15.8776 58.9714 16 58.1797 16ZM56.6094 4.625V16H55.1016V4.625H56.6094ZM68.8906 16.1562C68.3021 16.1562 67.7682 16.0573 67.2891 15.8594C66.8151 15.6562 66.4062 15.3724 66.0625 15.0078C65.724 14.6432 65.4635 14.2109 65.2812 13.7109C65.099 13.2109 65.0078 12.6641 65.0078 12.0703V11.7422C65.0078 11.0547 65.1094 10.4427 65.3125 9.90625C65.5156 9.36458 65.7917 8.90625 66.1406 8.53125C66.4896 8.15625 66.8854 7.8724 67.3281 7.67969C67.7708 7.48698 68.2292 7.39062 68.7031 7.39062C69.3073 7.39062 69.8281 7.49479 70.2656 7.70312C70.7083 7.91146 71.0703 8.20312 71.3516 8.57812C71.6328 8.94792 71.8411 9.38542 71.9766 9.89062C72.112 10.3906 72.1797 10.9375 72.1797 11.5312V12.1797H65.8672V11H70.7344V10.8906C70.7135 10.5156 70.6354 10.151 70.5 9.79688C70.3698 9.44271 70.1615 9.15104 69.875 8.92188C69.5885 8.69271 69.1979 8.57812 68.7031 8.57812C68.375 8.57812 68.0729 8.64844 67.7969 8.78906C67.5208 8.92448 67.2839 9.1276 67.0859 9.39844C66.888 9.66927 66.7344 10 66.625 10.3906C66.5156 10.7812 66.4609 11.2318 66.4609 11.7422V12.0703C66.4609 12.4714 66.5156 12.849 66.625 13.2031C66.7396 13.5521 66.9036 13.8594 67.1172 14.125C67.3359 14.3906 67.599 14.599 67.9062 14.75C68.2188 14.901 68.5729 14.9766 68.9688 14.9766C69.4792 14.9766 69.9115 14.8724 70.2656 14.6641C70.6198 14.4557 70.9297 14.1771 71.1953 13.8281L72.0703 14.5234C71.888 14.7995 71.6562 15.0625 71.375 15.3125C71.0938 15.5625 70.7474 15.7656 70.3359 15.9219C69.9297 16.0781 69.4479 16.1562 68.8906 16.1562ZM78.7891 13.7578C78.7891 13.5495 78.7422 13.3568 78.6484 13.1797C78.5599 12.9974 78.375 12.8333 78.0938 12.6875C77.8177 12.5365 77.401 12.4062 76.8438 12.2969C76.375 12.1979 75.9505 12.0807 75.5703 11.9453C75.1953 11.8099 74.875 11.6458 74.6094 11.4531C74.349 11.2604 74.1484 11.0339 74.0078 10.7734C73.8672 10.513 73.7969 10.2083 73.7969 9.85938C73.7969 9.52604 73.8698 9.21094 74.0156 8.91406C74.1667 8.61719 74.3776 8.35417 74.6484 8.125C74.9245 7.89583 75.2552 7.71615 75.6406 7.58594C76.026 7.45573 76.4557 7.39062 76.9297 7.39062C77.6068 7.39062 78.1849 7.51042 78.6641 7.75C79.1432 7.98958 79.5104 8.3099 79.7656 8.71094C80.0208 9.10677 80.1484 9.54688 80.1484 10.0312H78.7031C78.7031 9.79688 78.6328 9.57031 78.4922 9.35156C78.3568 9.1276 78.1562 8.94271 77.8906 8.79688C77.6302 8.65104 77.3099 8.57812 76.9297 8.57812C76.5286 8.57812 76.2031 8.64062 75.9531 8.76562C75.7083 8.88542 75.5286 9.03906 75.4141 9.22656C75.3047 9.41406 75.25 9.61198 75.25 9.82031C75.25 9.97656 75.276 10.1172 75.3281 10.2422C75.3854 10.362 75.4844 10.474 75.625 10.5781C75.7656 10.6771 75.9635 10.7708 76.2188 10.8594C76.474 10.9479 76.7995 11.0365 77.1953 11.125C77.888 11.2812 78.4583 11.4688 78.9062 11.6875C79.3542 11.9062 79.6875 12.1745 79.9062 12.4922C80.125 12.8099 80.2344 13.1953 80.2344 13.6484C80.2344 14.0182 80.1562 14.3568 80 14.6641C79.849 14.9714 79.6276 15.237 79.3359 15.4609C79.0495 15.6797 78.7057 15.8516 78.3047 15.9766C77.9089 16.0964 77.4635 16.1562 76.9688 16.1562C76.224 16.1562 75.5938 16.0234 75.0781 15.7578C74.5625 15.4922 74.1719 15.1484 73.9062 14.7266C73.6406 14.3047 73.5078 13.8594 73.5078 13.3906H74.9609C74.9818 13.7865 75.0964 14.1016 75.3047 14.3359C75.513 14.5651 75.7682 14.7292 76.0703 14.8281C76.3724 14.9219 76.6719 14.9688 76.9688 14.9688C77.3646 14.9688 77.6953 14.9167 77.9609 14.8125C78.2318 14.7083 78.4375 14.5651 78.5781 14.3828C78.7188 14.2005 78.7891 13.9922 78.7891 13.7578ZM83.5859 4V16H82.1328V4H83.5859ZM88.75 7.54688L85.0625 11.4922L83 13.6328L82.8828 12.0938L84.3594 10.3281L86.9844 7.54688H88.75ZM87.4297 16L84.4141 11.9688L85.1641 10.6797L89.1328 16H87.4297Z" fill="#00B37E"/>
</svg>
