<svg width="154" height="84" viewBox="0 0 154 84" fill="none" xmlns="http://www.w3.org/2000/svg">
<path d="M77.6894 35.5909H63.8377C63.671 35.5931 63.5054 35.5618 63.3509 35.4988C63.1964 35.4359 63.0561 35.3425 62.9382 35.2242C62.8202 35.106 62.7271 34.9652 62.6643 34.8103C62.6015 34.6554 62.5703 34.4894 62.5725 34.3222V20.4318C62.5725 16.4114 64.1652 12.5556 67.0001 9.71272C69.8351 6.86983 73.6802 5.27272 77.6894 5.27272V5.27272C79.6746 5.27272 81.6404 5.66482 83.4744 6.42664C85.3085 7.18845 86.975 8.30506 88.3787 9.71272C89.7825 11.1204 90.896 12.7915 91.6557 14.6307C92.4154 16.4699 92.8064 18.4411 92.8064 20.4318V20.4318C92.8064 22.4225 92.4154 24.3938 91.6557 26.2329C90.896 28.0721 89.7825 29.7433 88.3787 31.1509C86.975 32.5586 85.3085 33.6752 83.4744 34.437C81.6404 35.1988 79.6746 35.5909 77.6894 35.5909V35.5909Z" stroke="#00B37E" stroke-width="2" stroke-linecap="round" stroke-linejoin="round"/>
<path d="M72.4314 18.4545H82.2903" stroke="white" stroke-width="2" stroke-linecap="round" stroke-linejoin="round"/>
<path d="M72.4314 23.7273H82.2903" stroke="white" stroke-width="2" stroke-linecap="round" stroke-linejoin="round"/>
<path d="M19.6875 60.4102V63.1699H5.83594V60.4102H19.6875ZM6.36328 49.4062V75H2.9707V49.4062H6.36328ZM22.6406 49.4062V75H19.2656V49.4062H22.6406ZM36.0703 75.3516C34.7461 75.3516 33.5449 75.1289 32.4668 74.6836C31.4004 74.2266 30.4805 73.5879 29.707 72.7676C28.9453 71.9473 28.3594 70.9746 27.9492 69.8496C27.5391 68.7246 27.334 67.4941 27.334 66.1582V65.4199C27.334 63.873 27.5625 62.4961 28.0195 61.2891C28.4766 60.0703 29.0977 59.0391 29.8828 58.1953C30.668 57.3516 31.5586 56.7129 32.5547 56.2793C33.5508 55.8457 34.582 55.6289 35.6484 55.6289C37.0078 55.6289 38.1797 55.8633 39.1641 56.332C40.1602 56.8008 40.9746 57.457 41.6074 58.3008C42.2402 59.1328 42.709 60.1172 43.0137 61.2539C43.3184 62.3789 43.4707 63.6094 43.4707 64.9453V66.4043H29.2676V63.75H40.2188V63.5039C40.1719 62.6602 39.9961 61.8398 39.6914 61.043C39.3984 60.2461 38.9297 59.5898 38.2852 59.0742C37.6406 58.5586 36.7617 58.3008 35.6484 58.3008C34.9102 58.3008 34.2305 58.459 33.6094 58.7754C32.9883 59.0801 32.4551 59.5371 32.0098 60.1465C31.5645 60.7559 31.2188 61.5 30.9727 62.3789C30.7266 63.2578 30.6035 64.2715 30.6035 65.4199V66.1582C30.6035 67.0605 30.7266 67.9102 30.9727 68.707C31.2305 69.4922 31.5996 70.1836 32.0801 70.7812C32.5723 71.3789 33.1641 71.8477 33.8555 72.1875C34.5586 72.5273 35.3555 72.6973 36.2461 72.6973C37.3945 72.6973 38.3672 72.4629 39.1641 71.9941C39.9609 71.5254 40.6582 70.8984 41.2559 70.1133L43.2246 71.6777C42.8145 72.2988 42.293 72.8906 41.6602 73.4531C41.0273 74.0156 40.248 74.4727 39.3223 74.8242C38.4082 75.1758 37.3242 75.3516 36.0703 75.3516ZM50.8008 48V75H47.5312V48H50.8008ZM59.2734 59.6367V82.3125H56.0039V55.9805H58.9922L59.2734 59.6367ZM72.0879 65.332V65.7012C72.0879 67.084 71.9238 68.3672 71.5957 69.5508C71.2676 70.7227 70.7871 71.7422 70.1543 72.6094C69.5332 73.4766 68.7656 74.1504 67.8516 74.6309C66.9375 75.1113 65.8887 75.3516 64.7051 75.3516C63.498 75.3516 62.4316 75.1523 61.5059 74.7539C60.5801 74.3555 59.7949 73.7754 59.1504 73.0137C58.5059 72.252 57.9902 71.3379 57.6035 70.2715C57.2285 69.2051 56.9707 68.0039 56.8301 66.668V64.6992C56.9707 63.293 57.2344 62.0332 57.6211 60.9199C58.0078 59.8066 58.5176 58.8574 59.1504 58.0723C59.7949 57.2754 60.5742 56.6719 61.4883 56.2617C62.4023 55.8398 63.457 55.6289 64.6523 55.6289C65.8477 55.6289 66.9082 55.8633 67.834 56.332C68.7598 56.7891 69.5391 57.4453 70.1719 58.3008C70.8047 59.1562 71.2793 60.1816 71.5957 61.377C71.9238 62.5605 72.0879 63.8789 72.0879 65.332ZM68.8184 65.7012V65.332C68.8184 64.3828 68.7188 63.4922 68.5195 62.6602C68.3203 61.8164 68.0098 61.0781 67.5879 60.4453C67.1777 59.8008 66.6504 59.2969 66.0059 58.9336C65.3613 58.5586 64.5938 58.3711 63.7031 58.3711C62.8828 58.3711 62.168 58.5117 61.5586 58.793C60.9609 59.0742 60.4512 59.4551 60.0293 59.9355C59.6074 60.4043 59.2617 60.9434 58.9922 61.5527C58.7344 62.1504 58.541 62.7715 58.4121 63.416V67.9688C58.6465 68.7891 58.9746 69.5625 59.3965 70.2891C59.8184 71.0039 60.3809 71.584 61.084 72.0293C61.7871 72.4629 62.6719 72.6797 63.7383 72.6797C64.6172 72.6797 65.373 72.498 66.0059 72.1348C66.6504 71.7598 67.1777 71.25 67.5879 70.6055C68.0098 69.9609 68.3203 69.2227 68.5195 68.3906C68.7188 67.5469 68.8184 66.6504 68.8184 65.7012Z" fill="#525252"/>
<path d="M83.6543 75H78.3105L78.3457 72.2402H83.6543C85.4824 72.2402 87.0059 71.8594 88.2246 71.0977C89.4434 70.3242 90.3574 69.2461 90.9668 67.8633C91.5879 66.4688 91.8984 64.8398 91.8984 62.9766V61.4121C91.8984 59.9473 91.7227 58.6465 91.3711 57.5098C91.0195 56.3613 90.5039 55.3945 89.8242 54.6094C89.1445 53.8125 88.3125 53.209 87.3281 52.7988C86.3555 52.3887 85.2363 52.1836 83.9707 52.1836H78.2051V49.4062H83.9707C85.6465 49.4062 87.1758 49.6875 88.5586 50.25C89.9414 50.8008 91.1309 51.6035 92.127 52.6582C93.1348 53.7012 93.9082 54.9668 94.4473 56.4551C94.9863 57.9316 95.2559 59.5957 95.2559 61.4473V62.9766C95.2559 64.8281 94.9863 66.498 94.4473 67.9863C93.9082 69.4629 93.1289 70.7227 92.1094 71.7656C91.1016 72.8086 89.8828 73.6113 88.4531 74.1738C87.0352 74.7246 85.4355 75 83.6543 75ZM80.1211 49.4062V75H76.7285V49.4062H80.1211ZM107.754 75.3516C106.43 75.3516 105.229 75.1289 104.15 74.6836C103.084 74.2266 102.164 73.5879 101.391 72.7676C100.629 71.9473 100.043 70.9746 99.6328 69.8496C99.2227 68.7246 99.0176 67.4941 99.0176 66.1582V65.4199C99.0176 63.873 99.2461 62.4961 99.7031 61.2891C100.16 60.0703 100.781 59.0391 101.566 58.1953C102.352 57.3516 103.242 56.7129 104.238 56.2793C105.234 55.8457 106.266 55.6289 107.332 55.6289C108.691 55.6289 109.863 55.8633 110.848 56.332C111.844 56.8008 112.658 57.457 113.291 58.3008C113.924 59.1328 114.393 60.1172 114.697 61.2539C115.002 62.3789 115.154 63.6094 115.154 64.9453V66.4043H100.951V63.75H111.902V63.5039C111.855 62.6602 111.68 61.8398 111.375 61.043C111.082 60.2461 110.613 59.5898 109.969 59.0742C109.324 58.5586 108.445 58.3008 107.332 58.3008C106.594 58.3008 105.914 58.459 105.293 58.7754C104.672 59.0801 104.139 59.5371 103.693 60.1465C103.248 60.7559 102.902 61.5 102.656 62.3789C102.41 63.2578 102.287 64.2715 102.287 65.4199V66.1582C102.287 67.0605 102.41 67.9102 102.656 68.707C102.914 69.4922 103.283 70.1836 103.764 70.7812C104.256 71.3789 104.848 71.8477 105.539 72.1875C106.242 72.5273 107.039 72.6973 107.93 72.6973C109.078 72.6973 110.051 72.4629 110.848 71.9941C111.645 71.5254 112.342 70.8984 112.939 70.1133L114.908 71.6777C114.498 72.2988 113.977 72.8906 113.344 73.4531C112.711 74.0156 111.932 74.4727 111.006 74.8242C110.092 75.1758 109.008 75.3516 107.754 75.3516ZM130.025 69.9551C130.025 69.4863 129.92 69.0527 129.709 68.6543C129.51 68.2441 129.094 67.875 128.461 67.5469C127.84 67.207 126.902 66.9141 125.648 66.668C124.594 66.4453 123.639 66.1816 122.783 65.877C121.939 65.5723 121.219 65.2031 120.621 64.7695C120.035 64.3359 119.584 63.8262 119.268 63.2402C118.951 62.6543 118.793 61.9688 118.793 61.1836C118.793 60.4336 118.957 59.7246 119.285 59.0566C119.625 58.3887 120.1 57.7969 120.709 57.2812C121.33 56.7656 122.074 56.3613 122.941 56.0684C123.809 55.7754 124.775 55.6289 125.842 55.6289C127.365 55.6289 128.666 55.8984 129.744 56.4375C130.822 56.9766 131.648 57.6973 132.223 58.5996C132.797 59.4902 133.084 60.4805 133.084 61.5703H129.832C129.832 61.043 129.674 60.5332 129.357 60.041C129.053 59.5371 128.602 59.1211 128.004 58.793C127.418 58.4648 126.697 58.3008 125.842 58.3008C124.939 58.3008 124.207 58.4414 123.645 58.7227C123.094 58.9922 122.689 59.3379 122.432 59.7598C122.186 60.1816 122.062 60.627 122.062 61.0957C122.062 61.4473 122.121 61.7637 122.238 62.0449C122.367 62.3145 122.59 62.5664 122.906 62.8008C123.223 63.0234 123.668 63.2344 124.242 63.4336C124.816 63.6328 125.549 63.832 126.439 64.0312C127.998 64.3828 129.281 64.8047 130.289 65.2969C131.297 65.7891 132.047 66.3926 132.539 67.1074C133.031 67.8223 133.277 68.6895 133.277 69.709C133.277 70.541 133.102 71.3027 132.75 71.9941C132.41 72.6855 131.912 73.2832 131.256 73.7871C130.611 74.2793 129.838 74.666 128.936 74.9473C128.045 75.2168 127.043 75.3516 125.93 75.3516C124.254 75.3516 122.836 75.0527 121.676 74.4551C120.516 73.8574 119.637 73.084 119.039 72.1348C118.441 71.1855 118.143 70.1836 118.143 69.1289H121.412C121.459 70.0195 121.717 70.7285 122.186 71.2559C122.654 71.7715 123.229 72.1406 123.908 72.3633C124.588 72.5742 125.262 72.6797 125.93 72.6797C126.82 72.6797 127.564 72.5625 128.162 72.3281C128.771 72.0938 129.234 71.7715 129.551 71.3613C129.867 70.9512 130.025 70.4824 130.025 69.9551ZM140.818 48V75H137.549V48H140.818ZM152.438 55.9805L144.141 64.8574L139.5 69.6738L139.236 66.2109L142.559 62.2383L148.465 55.9805H152.438ZM149.467 75L142.682 65.9297L144.369 63.0293L153.299 75H149.467Z" fill="#00B37E"/>
</svg>
